<svg xmlns="http://www.w3.org/2000/svg" xmlns:xlink="http://www.w3.org/1999/xlink"><symbol id="cross" viewBox="0 0 612 612">
<path d="M397.503,306.011l195.577-195.577c25.27-25.269,25.27-66.213,0-91.482c-25.269-25.269-66.213-25.269-91.481,0
				L306.022,214.551L110.445,18.974c-25.269-25.269-66.213-25.269-91.482,0s-25.269,66.213,0,91.482L214.54,306.033L18.963,501.61
				c-25.269,25.269-25.269,66.213,0,91.481c25.269,25.27,66.213,25.27,91.482,0l195.577-195.576l195.577,195.576
				c25.269,25.27,66.213,25.27,91.481,0c25.27-25.269,25.27-66.213,0-91.481L397.503,306.011z"/>
</symbol><symbol id="find" viewBox="0 0 25 25">
<path d="M11.598 3.929c-4.225 0-7.67 3.444-7.67 7.67 0 4.224 3.445 7.669 7.67 7.669a7.622 7.622 0 004.74-1.654l3.193 3.193a.902.902 0 001.277 0 .902.902 0 000-1.275l-3.195-3.193a7.623 7.623 0 001.654-4.74c0-4.226-3.444-7.67-7.67-7.67zm0 1.805a5.85 5.85 0 015.864 5.864 5.85 5.85 0 01-5.864 5.865 5.85 5.85 0 01-5.864-5.865 5.85 5.85 0 015.864-5.864z"/>
</symbol><symbol id="logo" viewBox="0 0 100 14">
<path d="M90.5 0L85 4.9V0h-6.3v4.9L73.3 0h-8.8l8.6 6.7-9.3 7.3h8.8l6.1-5.5V14H85V8.5l6.1 5.5h8.8l-9.3-7.3L99.3 0h-8.8zM0 0v5.5h7.4V14h6.4V5.5h7.4V0H0zm25.2 9h38.6V4H25.2v5z"/>
</symbol><symbol id="user" viewBox="0 0 512 512"><path d="m437.019531 74.980469c-48.351562-48.351563-112.640625-74.980469-181.019531-74.980469-68.382812 0-132.667969 26.628906-181.019531 74.980469-48.351563 48.351562-74.980469 112.636719-74.980469 181.019531 0 68.378906 26.628906 132.667969 74.980469 181.019531 48.351562 48.351563 112.636719 74.980469 181.019531 74.980469 68.378906 0 132.667969-26.628906 181.019531-74.980469 48.351563-48.351562 74.980469-112.640625 74.980469-181.019531 0-68.382812-26.628906-132.667969-74.980469-181.019531zm-308.679687 367.40625c10.707031-61.648438 64.128906-107.121094 127.660156-107.121094 63.535156 0 116.953125 45.472656 127.660156 107.121094-36.347656 24.972656-80.324218 39.613281-127.660156 39.613281s-91.3125-14.640625-127.660156-39.613281zm46.261718-218.519531c0-44.886719 36.515626-81.398438 81.398438-81.398438s81.398438 36.515625 81.398438 81.398438c0 44.882812-36.515626 81.398437-81.398438 81.398437s-81.398438-36.515625-81.398438-81.398437zm235.042969 197.710937c-8.074219-28.699219-24.109375-54.738281-46.585937-75.078125-13.789063-12.480469-29.484375-22.328125-46.359375-29.269531 30.5-19.894531 50.703125-54.3125 50.703125-93.363281 0-61.425782-49.976563-111.398438-111.402344-111.398438s-111.398438 49.972656-111.398438 111.398438c0 39.050781 20.203126 73.46875 50.699219 93.363281-16.871093 6.941406-32.570312 16.785156-46.359375 29.265625-22.472656 20.339844-38.511718 46.378906-46.585937 75.078125-44.472657-41.300781-72.355469-100.238281-72.355469-165.574219 0-124.617188 101.382812-226 226-226s226 101.382812 226 226c0 65.339844-27.882812 124.277344-72.355469 165.578125zm0 0"/></symbol></svg>